<?xml version="1.0" standalone="no"?>
<!DOCTYPE svg PUBLIC "-//W3C//DTD SVG 20010904//EN"
 "http://www.w3.org/TR/2001/REC-SVG-20010904/DTD/svg10.dtd">
<svg version="1.0" xmlns="http://www.w3.org/2000/svg"
 width="192.000000pt" height="192.000000pt" viewBox="0 0 192.000000 192.000000"
 preserveAspectRatio="xMidYMid meet">
<metadata>
Created by potrace 1.11, written by Peter Selinger 2001-2013
</metadata>
<g transform="translate(0.000000,192.000000) scale(0.100000,-0.100000)"
fill="#000000" stroke="none">
<path d="M0 960 l0 -960 960 0 960 0 0 960 0 960 -960 0 -960 0 0 -960z m1283
646 c64 -19 106 -52 128 -100 50 -110 -12 -235 -133 -271 l-43 -12 -3 -77 -3
-78 63 -59 63 -59 -62 -58 -63 -58 0 -112 c0 -69 4 -112 10 -112 40 0 145 100
184 174 33 63 40 44 22 -60 -34 -195 -160 -330 -342 -363 -244 -45 -482 65
-582 269 -36 74 -37 77 -37 195 0 115 1 123 32 185 56 113 205 233 328 265 23
5 43 15 45 20 5 15 -139 46 -194 42 -80 -7 -116 -64 -82 -129 18 -34 6 -36
-41 -7 -89 55 -95 194 -12 284 86 93 207 104 405 37 161 -54 218 -65 261 -51
56 18 69 64 28 104 -16 17 -36 25 -62 26 -38 1 -38 1 -8 9 44 11 48 11 98 -4z"/>
<path d="M852 1249 c-54 -41 -126 -138 -113 -152 4 -4 25 1 47 12 89 43 245
111 254 111 12 0 14 -469 2 -485 -4 -6 -51 -30 -104 -54 -54 -24 -98 -47 -98
-51 0 -22 131 -60 207 -60 61 0 163 18 163 29 1 3 2 56 4 116 l3 110 -65 63
-66 63 68 61 67 60 -3 77 -3 76 -60 7 c-33 4 -98 19 -145 33 -47 14 -89 25
-95 24 -5 0 -34 -18 -63 -40z"/>
<path d="M763 1087 c-39 -19 -43 -24 -54 -76 -16 -79 -6 -189 24 -253 25 -55
72 -118 88 -118 13 0 7 463 -6 465 -5 1 -29 -7 -52 -18z"/>
</g>
</svg>
